<mxfile><diagram id="QM_PpAa6MCE-IDyK2JF3" name="Page-1"><mxGraphModel dx="832" dy="518" grid="1" gridSize="10" guides="1" tooltips="1" connect="1" arrows="1" fold="1" page="1" pageScale="1" pageWidth="850" pageHeight="1100" math="0" shadow="0"><root><mxCell id="0"/><mxCell id="1" parent="0"/><mxCell id="66" value="Data Dictionary" style="shape=table;startSize=30;container=1;collapsible=0;childLayout=tableLayout;" parent="1" vertex="1"><mxGeometry x="20" y="40" width="590" height="840" as="geometry"/></mxCell><mxCell id="67" value="" style="shape=tableRow;horizontal=0;startSize=0;swimlaneHead=0;swimlaneBody=0;top=0;left=0;bottom=0;right=0;collapsible=0;dropTarget=0;fillColor=none;points=[[0,0.5],[1,0.5]];portConstraint=eastwest;" parent="66" vertex="1"><mxGeometry y="30" width="590" height="60" as="geometry"/></mxCell><mxCell id="68" value="Entity" style="shape=partialRectangle;html=1;whiteSpace=wrap;connectable=0;overflow=hidden;fillColor=none;top=0;left=0;bottom=0;right=0;pointerEvents=1;" parent="67" vertex="1"><mxGeometry width="100" height="60" as="geometry"><mxRectangle width="100" height="60" as="alternateBounds"/></mxGeometry></mxCell><mxCell id="69" value="Attriibutes" style="shape=partialRectangle;html=1;whiteSpace=wrap;connectable=0;overflow=hidden;fillColor=none;top=0;left=0;bottom=0;right=0;pointerEvents=1;" parent="67" vertex="1"><mxGeometry x="100" width="170" height="60" as="geometry"><mxRectangle width="170" height="60" as="alternateBounds"/></mxGeometry></mxCell><mxCell id="70" value="&lt;div style=&quot;&quot;&gt;&lt;span style=&quot;background-color: initial;&quot;&gt;Description&lt;/span&gt;&lt;/div&gt;" style="shape=partialRectangle;html=1;whiteSpace=wrap;connectable=0;overflow=hidden;fillColor=none;top=0;left=0;bottom=0;right=0;pointerEvents=1;align=center;" parent="67" vertex="1"><mxGeometry x="270" width="320" height="60" as="geometry"><mxRectangle width="320" height="60" as="alternateBounds"/></mxGeometry></mxCell><mxCell id="71" value="" style="shape=tableRow;horizontal=0;startSize=0;swimlaneHead=0;swimlaneBody=0;top=0;left=0;bottom=0;right=0;collapsible=0;dropTarget=0;fillColor=none;points=[[0,0.5],[1,0.5]];portConstraint=eastwest;" parent="66" vertex="1"><mxGeometry y="90" width="590" height="200" as="geometry"/></mxCell><mxCell id="72" value="User" style="shape=partialRectangle;html=1;whiteSpace=wrap;connectable=0;overflow=hidden;fillColor=none;top=0;left=0;bottom=0;right=0;pointerEvents=1;" parent="71" vertex="1"><mxGeometry width="100" height="200" as="geometry"><mxRectangle width="100" height="200" as="alternateBounds"/></mxGeometry></mxCell><mxCell id="73" value="&lt;div style=&quot;&quot;&gt;&lt;span style=&quot;background-color: initial;&quot;&gt;- UserID&lt;/span&gt;&lt;/div&gt;&lt;div style=&quot;&quot;&gt;&lt;br&gt;&lt;/div&gt;&lt;div style=&quot;&quot;&gt;&lt;span style=&quot;background-color: initial;&quot;&gt;- Username&lt;/span&gt;&lt;/div&gt;&lt;div style=&quot;&quot;&gt;&lt;br&gt;&lt;/div&gt;&lt;div style=&quot;&quot;&gt;&lt;span style=&quot;background-color: initial;&quot;&gt;- Email&lt;/span&gt;&lt;/div&gt;&lt;div style=&quot;&quot;&gt;&lt;br&gt;&lt;/div&gt;&lt;div style=&quot;&quot;&gt;&lt;span style=&quot;background-color: initial;&quot;&gt;- Password&lt;/span&gt;&lt;/div&gt;&lt;div style=&quot;&quot;&gt;&lt;br&gt;&lt;/div&gt;&lt;div style=&quot;&quot;&gt;&lt;span style=&quot;background-color: initial;&quot;&gt;- FullName&lt;/span&gt;&lt;/div&gt;&lt;div style=&quot;&quot;&gt;&lt;br&gt;&lt;/div&gt;&lt;div style=&quot;&quot;&gt;&lt;span style=&quot;background-color: initial;&quot;&gt;- Address&lt;/span&gt;&lt;/div&gt;&lt;div style=&quot;&quot;&gt;&lt;br&gt;&lt;/div&gt;&lt;div style=&quot;&quot;&gt;&lt;span style=&quot;background-color: initial;&quot;&gt;- PhoneNumber&lt;/span&gt;&lt;/div&gt;" style="shape=partialRectangle;html=1;whiteSpace=wrap;connectable=0;overflow=hidden;fillColor=none;top=0;left=0;bottom=0;right=0;pointerEvents=1;align=left;" parent="71" vertex="1"><mxGeometry x="100" width="170" height="200" as="geometry"><mxRectangle width="170" height="200" as="alternateBounds"/></mxGeometry></mxCell><mxCell id="74" value="Unique identifier for a user&lt;br&gt;&lt;br&gt;User's username&lt;br&gt;&lt;br&gt;User's email address&lt;br&gt;&lt;br&gt;User's password&lt;br&gt;&lt;br&gt;User's full name&lt;br&gt;&lt;br&gt;User's address&lt;br&gt;&lt;br&gt;User's contact phone number" style="shape=partialRectangle;html=1;whiteSpace=wrap;connectable=0;overflow=hidden;fillColor=none;top=0;left=0;bottom=0;right=0;pointerEvents=1;align=left;" parent="71" vertex="1"><mxGeometry x="270" width="320" height="200" as="geometry"><mxRectangle width="320" height="200" as="alternateBounds"/></mxGeometry></mxCell><mxCell id="75" value="" style="shape=tableRow;horizontal=0;startSize=0;swimlaneHead=0;swimlaneBody=0;top=0;left=0;bottom=0;right=0;collapsible=0;dropTarget=0;fillColor=none;points=[[0,0.5],[1,0.5]];portConstraint=eastwest;" parent="66" vertex="1"><mxGeometry y="290" width="590" height="210" as="geometry"/></mxCell><mxCell id="76" value="Product" style="shape=partialRectangle;html=1;whiteSpace=wrap;connectable=0;overflow=hidden;fillColor=none;top=0;left=0;bottom=0;right=0;pointerEvents=1;" parent="75" vertex="1"><mxGeometry width="100" height="210" as="geometry"><mxRectangle width="100" height="210" as="alternateBounds"/></mxGeometry></mxCell><mxCell id="77" value="- ProductID&lt;br&gt;&lt;br&gt;- Name&lt;br&gt;&lt;br&gt;- Description&lt;br&gt;&lt;br&gt;-Price&lt;br&gt;&lt;br&gt;- Category&lt;br&gt;&lt;br&gt;- Quantity" style="shape=partialRectangle;html=1;whiteSpace=wrap;connectable=0;overflow=hidden;fillColor=none;top=0;left=0;bottom=0;right=0;pointerEvents=1;align=left;" parent="75" vertex="1"><mxGeometry x="100" width="170" height="210" as="geometry"><mxRectangle width="170" height="210" as="alternateBounds"/></mxGeometry></mxCell><mxCell id="78" value="&lt;span style=&quot;&quot;&gt;Unique identifier for a product&lt;/span&gt;&lt;br style=&quot;&quot;&gt;&lt;br style=&quot;&quot;&gt;Name of product&lt;br style=&quot;&quot;&gt;&lt;br style=&quot;&quot;&gt;Description of the product&amp;nbsp;&lt;br style=&quot;&quot;&gt;&lt;br style=&quot;&quot;&gt;Price of the product&lt;br style=&quot;&quot;&gt;&lt;br style=&quot;&quot;&gt;Category of the product&lt;br&gt;&lt;br style=&quot;&quot;&gt;Available quantity of the product" style="shape=partialRectangle;html=1;whiteSpace=wrap;connectable=0;overflow=hidden;fillColor=none;top=0;left=0;bottom=0;right=0;pointerEvents=1;align=left;" parent="75" vertex="1"><mxGeometry x="270" width="320" height="210" as="geometry"><mxRectangle width="320" height="210" as="alternateBounds"/></mxGeometry></mxCell><mxCell id="79" value="" style="shape=tableRow;horizontal=0;startSize=0;swimlaneHead=0;swimlaneBody=0;top=0;left=0;bottom=0;right=0;collapsible=0;dropTarget=0;fillColor=none;points=[[0,0.5],[1,0.5]];portConstraint=eastwest;" parent="66" vertex="1"><mxGeometry y="500" width="590" height="170" as="geometry"/></mxCell><mxCell id="80" value="Order" style="shape=partialRectangle;html=1;whiteSpace=wrap;connectable=0;overflow=hidden;fillColor=none;top=0;left=0;bottom=0;right=0;pointerEvents=1;" parent="79" vertex="1"><mxGeometry width="100" height="170" as="geometry"><mxRectangle width="100" height="170" as="alternateBounds"/></mxGeometry></mxCell><mxCell id="81" value="- OrderID&lt;br&gt;&lt;br&gt;- UserID&lt;br&gt;&lt;br&gt;- OrderDate&lt;br&gt;&lt;br&gt;- TotalAmount&lt;br&gt;&lt;br&gt;- Status" style="shape=partialRectangle;html=1;whiteSpace=wrap;connectable=0;overflow=hidden;fillColor=none;top=0;left=0;bottom=0;right=0;pointerEvents=1;align=left;" parent="79" vertex="1"><mxGeometry x="100" width="170" height="170" as="geometry"><mxRectangle width="170" height="170" as="alternateBounds"/></mxGeometry></mxCell><mxCell id="82" value="Unique identifier for an order&lt;br&gt;&lt;br&gt;Identifier of the user placing order&lt;br&gt;&lt;br&gt;Date the order was placed&lt;br&gt;&lt;br&gt;Total amount of the order&lt;br&gt;&lt;br&gt;Status of the order (eg. pending, shipped, delivered)" style="shape=partialRectangle;html=1;whiteSpace=wrap;connectable=0;overflow=hidden;fillColor=none;top=0;left=0;bottom=0;right=0;pointerEvents=1;align=left;" parent="79" vertex="1"><mxGeometry x="270" width="320" height="170" as="geometry"><mxRectangle width="320" height="170" as="alternateBounds"/></mxGeometry></mxCell><mxCell id="83" value="" style="shape=tableRow;horizontal=0;startSize=0;swimlaneHead=0;swimlaneBody=0;top=0;left=0;bottom=0;right=0;collapsible=0;dropTarget=0;fillColor=none;points=[[0,0.5],[1,0.5]];portConstraint=eastwest;" parent="66" vertex="1"><mxGeometry y="670" width="590" height="170" as="geometry"/></mxCell><mxCell id="84" value="Review" style="shape=partialRectangle;html=1;whiteSpace=wrap;connectable=0;overflow=hidden;fillColor=none;top=0;left=0;bottom=0;right=0;pointerEvents=1;" parent="83" vertex="1"><mxGeometry width="100" height="170" as="geometry"><mxRectangle width="100" height="170" as="alternateBounds"/></mxGeometry></mxCell><mxCell id="85" value="- ReviewID&lt;br&gt;&lt;br&gt;- UserID&amp;nbsp;&lt;br&gt;&lt;br&gt;- ProductID&lt;br&gt;&lt;br&gt;- Rating&lt;br&gt;&lt;br&gt;- Comment" style="shape=partialRectangle;html=1;whiteSpace=wrap;connectable=0;overflow=hidden;fillColor=none;top=0;left=0;bottom=0;right=0;pointerEvents=1;align=left;" parent="83" vertex="1"><mxGeometry x="100" width="170" height="170" as="geometry"><mxRectangle width="170" height="170" as="alternateBounds"/></mxGeometry></mxCell><mxCell id="86" value="Unique identifier for a review&lt;br&gt;&lt;br&gt;Identifier of the user writing review&lt;br&gt;&lt;br&gt;Identifier of the reviewed product&lt;br&gt;&lt;br&gt;Rating given to the product&lt;br&gt;&lt;br&gt;Comment or review text" style="shape=partialRectangle;html=1;whiteSpace=wrap;connectable=0;overflow=hidden;fillColor=none;top=0;left=0;bottom=0;right=0;pointerEvents=1;align=left;" parent="83" vertex="1"><mxGeometry x="270" width="320" height="170" as="geometry"><mxRectangle width="320" height="170" as="alternateBounds"/></mxGeometry></mxCell></root></mxGraphModel></diagram></mxfile>